<svg width="24" height="24" viewBox="0 0 24 24" fill="none" xmlns="http://www.w3.org/2000/svg">
<g clip-path="url(#clip0_111_34382)">
<path d="M17.4268 12.8714H8.1277L4.29983 4.50879H22.5242C23.0126 4.50879 23.3037 5.05333 23.0324 5.45941L18.4431 12.3282C18.2163 12.6676 17.8351 12.8714 17.4268 12.8714Z" fill="#292929"/>
<path d="M-0.166016 2H2.36674C2.84486 2 3.27908 2.27879 3.47808 2.71353L8.1277 12.8714M8.1277 12.8714H17.3388C17.7944 12.8714 18.2122 12.618 18.4227 12.214L21.8342 5.6667M8.1277 12.8714L6.08676 15.6153C5.81237 15.9842 5.7682 16.4759 5.97245 16.8877L6.13214 17.2098C6.33845 17.6258 6.76273 17.889 7.22713 17.889H21.3977" stroke="#292929" stroke-width="1.83335"/>
<circle cx="8.99936" cy="22.1654" r="1.83335" fill="#292929"/>
<circle cx="18.7787" cy="22.1654" r="1.83335" fill="#292929"/>
</g>
<defs>
<clipPath id="clip0_111_34382">
<rect width="24" height="24" fill="white"/>
</clipPath>
</defs>
</svg>
