<svg width="138" height="22" viewBox="0 0 138 22" fill="none" xmlns="http://www.w3.org/2000/svg">
<g clip-path="url(#clip0_111_34373)">
<path d="M4.593 4.60629V9.6764H13.1242V13.0767H4.593V21.2739H0.40332V1.23633H15.4012V4.60629H4.593Z" fill="#292929"/>
<path d="M28.3621 16.386H20.6507L19.0112 21.2739H14.7305L22.0472 1.23633H27.0566L34.3734 21.2739H30.0319L28.3621 16.386ZM27.3299 13.2892L25.4475 7.64228L24.5367 4.60629H24.476L23.6259 7.58156L21.6829 13.2892H27.3299Z" fill="#292929"/>
<path d="M59.143 21.2739H55.3784V10.8301L55.5606 4.97061H55.4998L49.9441 21.2739H46.5135L40.9879 4.97061H40.9272L41.1397 10.8301V21.2739H37.3447V1.23633H43.4167L47.0296 12.1659L48.3047 16.6896H48.3654L49.6709 12.1963L53.2534 1.23633H59.143V21.2739Z" fill="#292929"/>
<path d="M68.5432 21.2739H64.3535V1.23633H68.5432V21.2739Z" fill="#292929"/>
<path d="M83.7721 21.2739H78.8841L71.5674 1.23633H75.9999L80.22 13.9875L81.3737 17.9343L82.497 14.0179L86.7474 1.23633H91.0585L83.7721 21.2739Z" fill="#292929"/>
<path d="M98.2805 21.2739H94.0908V1.23633H98.2805V21.2739Z" fill="#292929"/>
<path d="M119.34 4.60629H112.631V21.2739H108.441V4.60629H101.701V1.23633H119.34V4.60629Z" fill="#292929"/>
<path d="M131.449 16.386H123.738L122.098 21.2739H117.817L125.134 1.23633H130.144L137.46 21.2739H133.119L131.449 16.386ZM130.417 13.2892L128.534 7.64228L127.624 4.60629H127.563L126.713 7.58156L124.77 13.2892H130.417Z" fill="#292929"/>
</g>
<defs>
<clipPath id="clip0_111_34373">
<rect width="138" height="20.424" fill="white" transform="translate(0 0.849609)"/>
</clipPath>
</defs>
</svg>
