<svg width="48" height="48" viewBox="0 0 48 48" fill="none" xmlns="http://www.w3.org/2000/svg">
<circle cx="18" cy="18" r="18" fill="#F7F4F9"/>
<path d="M21 12V9M21 6V9M21 9H18M21 9H24" stroke="#292929" stroke-width="1.3"/>
<path d="M41 12V9M41 6V9M41 9H38M41 9H44" stroke="#292929" stroke-width="1.3"/>
<path d="M20.4815 29.8785C20.0931 31.0029 19.5104 31.974 18.7335 32.7918C17.9771 33.6096 17.0571 34.2331 15.9735 34.6625C14.9104 35.0918 13.7144 35.3065 12.3855 35.3065C10.5455 35.3065 8.93044 34.8873 7.54021 34.0491C6.17044 33.1905 5.0971 31.9842 4.32021 30.4305C3.56377 28.8767 3.18555 27.0265 3.18555 24.8798C3.18555 22.7331 3.56377 20.8829 4.32021 19.3291C5.07666 17.7753 6.13977 16.5793 7.50955 15.7411C8.89977 14.8825 10.5149 14.4531 12.3549 14.4531C13.7247 14.4531 14.9207 14.6473 15.9429 15.0358C16.9855 15.4038 17.8647 15.966 18.5802 16.7225C19.2958 17.4585 19.8375 18.3682 20.2055 19.4518L18.7029 20.1571C18.2327 18.7465 17.4864 17.6833 16.4642 16.9678C15.442 16.2318 14.1029 15.8638 12.4469 15.8638C10.934 15.8638 9.59488 16.2318 8.42955 16.9678C7.28466 17.6833 6.39532 18.7158 5.76155 20.0651C5.12777 21.394 4.81088 22.9989 4.81088 24.8798C4.81088 26.7402 5.11755 28.3451 5.73088 29.6945C6.36466 31.0438 7.25399 32.0865 8.39888 32.8225C9.54377 33.538 10.8727 33.8958 12.3855 33.8958C14.0211 33.8958 15.4113 33.5073 16.5562 32.7305C17.7011 31.9331 18.4984 30.7882 18.9482 29.2958L20.4815 29.8785Z" fill="#292929"/>
<path d="M29.96 34.9998V14.7598H37.1053C39.3337 14.7598 40.9897 15.23 42.0733 16.1704C43.1568 17.0904 43.6986 18.4091 43.6986 20.1264C43.6986 21.2918 43.3817 22.2935 42.748 23.1318C42.1142 23.9495 41.1942 24.4811 39.988 24.7264V24.7571C41.2964 24.9615 42.3288 25.5033 43.0853 26.3824C43.8622 27.2411 44.2506 28.294 44.2506 29.5411C44.2506 31.2584 43.6373 32.5975 42.4106 33.5584C41.184 34.5193 39.4155 34.9998 37.1053 34.9998H29.96ZM31.4933 33.5891H37.412C39.1497 33.5891 40.448 33.2415 41.3066 32.5464C42.1857 31.8513 42.6253 30.8495 42.6253 29.5411C42.6253 28.2122 42.1857 27.2104 41.3066 26.5358C40.448 25.8407 39.1497 25.4931 37.412 25.4931H31.4933V33.5891ZM31.4933 24.0824H37.136C40.4275 24.0824 42.0733 22.7638 42.0733 20.1264C42.0733 17.4891 40.4275 16.1704 37.136 16.1704H31.4933V24.0824Z" fill="#292929"/>
</svg>
